<svg width="390" height="83" viewBox="0 0 390 83" fill="none" xmlns="http://www.w3.org/2000/svg">
<path d="M38.88 22.96C38.88 25.7867 38.2133 28.4533 36.88 30.96C35.5467 33.4667 33.4133 35.52 30.48 37.12C27.5467 38.6667 23.7867 39.44 19.2 39.44H9.12V62H2.38419e-07V6.4H19.2C23.4667 6.4 27.0667 7.14666 30 8.64C32.9867 10.08 35.2 12.0533 36.64 14.56C38.1333 17.0667 38.88 19.8667 38.88 22.96ZM19.2 32C22.6667 32 25.2533 31.2267 26.96 29.68C28.6667 28.08 29.52 25.84 29.52 22.96C29.52 16.88 26.08 13.84 19.2 13.84H9.12V32H19.2Z" fill="#0B57A3"/>
<path d="M56.6981 24.32C58.0315 22.08 59.7915 20.3467 61.9781 19.12C64.2181 17.84 66.8581 17.2 69.8981 17.2V26.64H67.5781C64.0048 26.64 61.2848 27.5467 59.4181 29.36C57.6048 31.1733 56.6981 34.32 56.6981 38.8V62H47.5781V17.92H56.6981V24.32ZM75.2413 39.76C75.2413 35.3333 76.1479 31.4133 77.9613 28C79.8279 24.5867 82.3346 21.9467 85.4813 20.08C88.6813 18.16 92.2013 17.2 96.0413 17.2C99.5079 17.2 102.521 17.8933 105.081 19.28C107.695 20.6133 109.775 22.2933 111.321 24.32V17.92H120.521V62H111.321V55.44C109.775 57.52 107.668 59.2533 105.001 60.64C102.335 62.0267 99.2946 62.72 95.8813 62.72C92.0946 62.72 88.6279 61.76 85.4813 59.84C82.3346 57.8667 79.8279 55.1467 77.9613 51.68C76.1479 48.16 75.2413 44.1867 75.2413 39.76ZM111.321 39.92C111.321 36.88 110.681 34.24 109.401 32C108.175 29.76 106.548 28.0533 104.521 26.88C102.495 25.7067 100.308 25.12 97.9613 25.12C95.6146 25.12 93.4279 25.7067 91.4013 26.88C89.3746 28 87.7213 29.68 86.4413 31.92C85.2146 34.1067 84.6013 36.72 84.6013 39.76C84.6013 42.8 85.2146 45.4667 86.4413 47.76C87.7213 50.0533 89.3746 51.8133 91.4013 53.04C93.4813 54.2133 95.6679 54.8 97.9613 54.8C100.308 54.8 102.495 54.2133 104.521 53.04C106.548 51.8667 108.175 50.16 109.401 47.92C110.681 45.6267 111.321 42.96 111.321 39.92ZM154.74 17.2C158.207 17.2 161.3 17.92 164.02 19.36C166.793 20.8 168.953 22.9333 170.5 25.76C172.047 28.5867 172.82 32 172.82 36V62H163.78V37.36C163.78 33.4133 162.793 30.4 160.82 28.32C158.847 26.1867 156.153 25.12 152.74 25.12C149.327 25.12 146.607 26.1867 144.58 28.32C142.607 30.4 141.62 33.4133 141.62 37.36V62H132.5V17.92H141.62V22.96C143.113 21.1467 145.007 19.7333 147.3 18.72C149.647 17.7067 152.127 17.2 154.74 17.2ZM189.093 12.08C187.44 12.08 186.053 11.52 184.933 10.4C183.813 9.28 183.253 7.89333 183.253 6.24C183.253 4.58666 183.813 3.2 184.933 2.08C186.053 0.959997 187.44 0.399997 189.093 0.399997C190.693 0.399997 192.053 0.959997 193.173 2.08C194.293 3.2 194.853 4.58666 194.853 6.24C194.853 7.89333 194.293 9.28 193.173 10.4C192.053 11.52 190.693 12.08 189.093 12.08ZM193.573 70.64C193.573 74.96 192.48 78.08 190.293 80C188.16 81.9733 185.04 82.96 180.933 82.96H176.213V75.28H179.333C181.2 75.28 182.506 74.9067 183.253 74.16C184.053 73.4667 184.453 72.2933 184.453 70.64V17.92H193.573V70.64ZM202.507 39.76C202.507 35.3333 203.414 31.4133 205.227 28C207.094 24.5867 209.6 21.9467 212.747 20.08C215.947 18.16 219.467 17.2 223.307 17.2C226.774 17.2 229.787 17.8933 232.347 19.28C234.96 20.6133 237.04 22.2933 238.587 24.32V17.92H247.787V62H238.587V55.44C237.04 57.52 234.934 59.2533 232.267 60.64C229.6 62.0267 226.56 62.72 223.147 62.72C219.36 62.72 215.894 61.76 212.747 59.84C209.6 57.8667 207.094 55.1467 205.227 51.68C203.414 48.16 202.507 44.1867 202.507 39.76ZM238.587 39.92C238.587 36.88 237.947 34.24 236.667 32C235.44 29.76 233.814 28.0533 231.787 26.88C229.76 25.7067 227.574 25.12 225.227 25.12C222.88 25.12 220.694 25.7067 218.667 26.88C216.64 28 214.987 29.68 213.707 31.92C212.48 34.1067 211.867 36.72 211.867 39.76C211.867 42.8 212.48 45.4667 213.707 47.76C214.987 50.0533 216.64 51.8133 218.667 53.04C220.747 54.2133 222.934 54.8 225.227 54.8C227.574 54.8 229.76 54.2133 231.787 53.04C233.814 51.8667 235.44 50.16 236.667 47.92C237.947 45.6267 238.587 42.96 238.587 39.92ZM268.886 2.8V62H259.766V2.8H268.886ZM321.259 38.88C321.259 40.5333 321.153 42.0267 320.939 43.36H287.259C287.526 46.88 288.833 49.7067 291.179 51.84C293.526 53.9733 296.406 55.04 299.819 55.04C304.726 55.04 308.193 52.9867 310.219 48.88H320.059C318.726 52.9333 316.299 56.2667 312.779 58.88C309.313 61.44 304.993 62.72 299.819 62.72C295.606 62.72 291.819 61.7867 288.459 59.92C285.153 58 282.539 55.3333 280.619 51.92C278.753 48.4533 277.819 44.4533 277.819 39.92C277.819 35.3867 278.726 31.4133 280.539 28C282.406 24.5333 284.993 21.8667 288.299 20C291.659 18.1333 295.499 17.2 299.819 17.2C303.979 17.2 307.686 18.1067 310.939 19.92C314.193 21.7333 316.726 24.2933 318.539 27.6C320.353 30.8533 321.259 34.6133 321.259 38.88ZM311.739 36C311.686 32.64 310.486 29.9467 308.139 27.92C305.793 25.8933 302.886 24.88 299.419 24.88C296.273 24.88 293.579 25.8933 291.339 27.92C289.099 29.8933 287.766 32.5867 287.339 36H311.739ZM370.634 38.88C370.634 40.5333 370.528 42.0267 370.314 43.36H336.634C336.901 46.88 338.208 49.7067 340.554 51.84C342.901 53.9733 345.781 55.04 349.194 55.04C354.101 55.04 357.568 52.9867 359.594 48.88H369.434C368.101 52.9333 365.674 56.2667 362.154 58.88C358.688 61.44 354.368 62.72 349.194 62.72C344.981 62.72 341.194 61.7867 337.834 59.92C334.528 58 331.914 55.3333 329.994 51.92C328.128 48.4533 327.194 44.4533 327.194 39.92C327.194 35.3867 328.101 31.4133 329.914 28C331.781 24.5333 334.368 21.8667 337.674 20C341.034 18.1333 344.874 17.2 349.194 17.2C353.354 17.2 357.061 18.1067 360.314 19.92C363.568 21.7333 366.101 24.2933 367.914 27.6C369.728 30.8533 370.634 34.6133 370.634 38.88ZM361.114 36C361.061 32.64 359.861 29.9467 357.514 27.92C355.168 25.8933 352.261 24.88 348.794 24.88C345.648 24.88 342.954 25.8933 340.714 27.92C338.474 29.8933 337.141 32.5867 336.714 36H361.114ZM383.289 62.56C381.636 62.56 380.249 62 379.129 60.88C378.009 59.76 377.449 58.3733 377.449 56.72C377.449 55.0667 378.009 53.68 379.129 52.56C380.249 51.44 381.636 50.88 383.289 50.88C384.889 50.88 386.249 51.44 387.369 52.56C388.489 53.68 389.049 55.0667 389.049 56.72C389.049 58.3733 388.489 59.76 387.369 60.88C386.249 62 384.889 62.56 383.289 62.56Z" fill="#1E1E1E"/>
</svg>
